HIERARCHY
ROOT hip
{
  OFFSET 0 0 0
  CHANNELS 6 Xposition Yposition Zposition Zrotation Yrotation Xrotation
  JOINT abdomen
  {
    OFFSET 0 20.6881 -0.73152
    CHANNELS 3 Zrotation Xrotation Yrotation
    JOINT chest
    {
      OFFSET 0 11.7043 -0.48768
      CHANNELS 3 Zrotation Xrotation Yrotation
      JOINT neck
      {
        OFFSET 0 22.1894 -2.19456
        CHANNELS 3 Zrotation Xrotation Yrotation
        JOINT head
        {
          OFFSET -0.24384 7.07133 1.2192
          CHANNELS 3 Zrotation Xrotation Yrotation
          JOINT leftEye
          {
            OFFSET 4.14528 8.04674 8.04672
            CHANNELS 3 Zrotation Xrotation Yrotation
            End Site
            {
              OFFSET 1 0 0
            }
          }
          JOINT rightEye
          {
            OFFSET -3.6576 8.04674 8.04672
            CHANNELS 3 Zrotation Xrotation Yrotation
            End Site
            {
              OFFSET 1 0 0
            }
          }
        }
      }
      JOINT rCollar
      {
        OFFSET -2.68224 19.2634 -4.8768
        CHANNELS 3 Zrotation Xrotation Yrotation
        JOINT rShldr
        {
          OFFSET -8.77824 -1.95073 1.46304
          CHANNELS 3 Zrotation Xrotation Yrotation
          JOINT rForeArm
          {
            OFFSET -28.1742 -1.7115 0.48768
            CHANNELS 3 Zrotation Xrotation Yrotation
            JOINT rHand
            {
              OFFSET -22.5879 0.773209 7.07136
              CHANNELS 3 Zrotation Xrotation Yrotation
              JOINT rThumb1
              {
                OFFSET -1.2192 -0.487915 3.41376
                CHANNELS 3 Zrotation Xrotation Yrotation
                JOINT rThumb2
                {
                  OFFSET -3.37035 -0.52449 3.41376
                  CHANNELS 3 Zrotation Xrotation Yrotation
                  End Site
                  {
                    OFFSET -1.78271 -1.18214 1.43049
                  }
                }
              }
              JOINT rIndex1
              {
                OFFSET -7.75947 0.938293 5.60832
                CHANNELS 3 Zrotation Xrotation Yrotation
                JOINT rIndex2
                {
                  OFFSET -2.54057 -0.884171 1.56538
                  CHANNELS 3 Zrotation Xrotation Yrotation
                  End Site
                  {
                    OFFSET -1.62519 -0.234802 1.16502
                  }
                }
              }
              JOINT rMid1
              {
                OFFSET -8.24714 1.18213 3.41376
                CHANNELS 3 Zrotation Xrotation Yrotation
                JOINT rMid2
                {
                  OFFSET -3.10165 -0.590103 1.0647
                  CHANNELS 3 Zrotation Xrotation Yrotation
                  End Site
                  {
                    OFFSET -2.48547 -0.328903 0.83742
                  }
                }
              }
              JOINT rRing1
              {
                OFFSET -8.82822 0.546677 1.51678
                CHANNELS 3 Zrotation Xrotation Yrotation
                JOINT rRing2
                {
                  OFFSET -2.60934 -0.819778 -0.0198488
                  CHANNELS 3 Zrotation Xrotation Yrotation
                  End Site
                  {
                    OFFSET -2.33842 -0.294052 0.168128
                  }
                }
              }
              JOINT rPinky1
              {
                OFFSET -8.27202 -0.0477905 -0.4584
                CHANNELS 3 Zrotation Xrotation Yrotation
                JOINT rPinky2
                {
                  OFFSET -1.82734 -0.647385 -0.700984
                  CHANNELS 3 Zrotation Xrotation Yrotation
                  End Site
                  {
                    OFFSET -1.69225 -0.51767 -0.607171
                  }
                }
              }
            }
          }
        }
      }
      JOINT lCollar
      {
        OFFSET 2.68224 19.2634 -4.8768
        CHANNELS 3 Zrotation Xrotation Yrotation
        JOINT lShldr
        {
          OFFSET 8.77824 -1.95073 1.46304
          CHANNELS 3 Zrotation Xrotation Yrotation
          JOINT lForeArm
          {
            OFFSET 28.1742 -1.7115 0.48768
            CHANNELS 3 Zrotation Xrotation Yrotation
            JOINT lHand
            {
              OFFSET 22.5879 0.773209 7.07136
              CHANNELS 3 Zrotation Xrotation Yrotation
              JOINT lThumb1
              {
                OFFSET 1.2192 -0.487915 3.41376
                CHANNELS 3 Zrotation Xrotation Yrotation
                JOINT lThumb2
                {
                  OFFSET 3.37035 -0.52449 3.41376
                  CHANNELS 3 Zrotation Xrotation Yrotation
                  End Site
                  {
                    OFFSET 1.78271 -1.18214 1.43049
                  }
                }
              }
              JOINT lIndex1
              {
                OFFSET 7.75947 0.938293 5.60832
                CHANNELS 3 Zrotation Xrotation Yrotation
                JOINT lIndex2
                {
                  OFFSET 2.54057 -0.884171 1.56538
                  CHANNELS 3 Zrotation Xrotation Yrotation
                  End Site
                  {
                    OFFSET 1.62519 -0.234802 1.16502
                  }
                }
              }
              JOINT lMid1
              {
                OFFSET 8.24714 1.18213 3.41376
                CHANNELS 3 Zrotation Xrotation Yrotation
                JOINT lMid2
                {
                  OFFSET 3.10165 -0.590103 1.0647
                  CHANNELS 3 Zrotation Xrotation Yrotation
                  End Site
                  {
                    OFFSET 2.48547 -0.328903 0.83742
                  }
                }
              }
              JOINT lRing1
              {
                OFFSET 8.82822 0.546677 1.51678
                CHANNELS 3 Zrotation Xrotation Yrotation
                JOINT lRing2
                {
                  OFFSET 2.60934 -0.819778 -0.0198488
                  CHANNELS 3 Zrotation Xrotation Yrotation
                  End Site
                  {
                    OFFSET 2.33842 -0.294052 0.168128
                  }
                }
              }
              JOINT lPinky1
              {
                OFFSET 8.27202 -0.0477905 -0.4584
                CHANNELS 3 Zrotation Xrotation Yrotation
                JOINT lPinky2
                {
                  OFFSET 1.82734 -0.647385 -0.700984
                  CHANNELS 3 Zrotation Xrotation Yrotation
                  End Site
                  {
                    OFFSET 1.69225 -0.51767 -0.607171
                  }
                }
              }
            }
          }
        }
      }
    }
  }
  JOINT rButtock
  {
    OFFSET -8.77824 4.35084 1.2192
    CHANNELS 3 Zrotation Xrotation Yrotation
    JOINT rThigh
    {
      OFFSET 0 -1.70687 -2.19456
      CHANNELS 3 Zrotation Xrotation Yrotation
      JOINT rShin
      {
        OFFSET 0 -36.8199 0.73152
        CHANNELS 3 Zrotation Xrotation Yrotation
        JOINT rFoot
        {
          OFFSET 0.73152 -45.1104 -5.12064
          CHANNELS 3 Zrotation Xrotation Yrotation
          End Site
          {
            OFFSET -1.1221 -3.69964 12.103
          }
        }
      }
    }
  }
  JOINT lButtock
  {
    OFFSET 8.77824 4.35084 1.2192
    CHANNELS 3 Zrotation Xrotation Yrotation
    JOINT lThigh
    {
      OFFSET 0 -1.70687 -2.19456
      CHANNELS 3 Zrotation Xrotation Yrotation
      JOINT lShin
      {
        OFFSET 0 -36.8199 0.73152
        CHANNELS 3 Zrotation Xrotation Yrotation
        JOINT lFoot
        {
          OFFSET -0.73152 -45.1104 -5.12064
          CHANNELS 3 Zrotation Xrotation Yrotation
          End Site
          {
            OFFSET 1.1221 -3.69964 12.103
          }
        }
      }
    }
  }
}
MOTION
Frames:	4
Frame Time:	0.00833333
-0.161188 76.1042 -7.71365 1.9687 5.7573 5.8884 8.07464 38.3877 -4.54504 3.02446 1.62766 -0.50211 -17.954 9.39515 -12.5151 36.16 -26.0342 -14.9619 -0.0 0.0 0.0 -0.0 0.0 0.0 8.14402e-14 6.3615e-15 6.01324e-15 -13.3198 12.5735 66.7383 -23.2159 -17.6996 47.2166 -0.0910218 8.57409 1.21418 5.95699e-10 -3.64156e-10 1.29021e-09 1.03917e-09 -6.11506e-10 2.22871e-09 5.95699e-10 -3.64156e-10 1.29019e-09 7.73091 5.47488 0.417314 5.95698e-10 -3.6416e-10 1.2902e-09 2.90554 0.965183 0.102902 5.95703e-10 -3.64159e-10 1.2902e-09 10.2786 0.731801 0.0259123 5.9569e-10 -3.64155e-10 1.29021e-09 2.22167 -0.733487 -0.20892 8.13698e-14 6.36014e-15 5.76476e-15 11.6891 6.79761 -70.6854 21.4066 -14.891 -42.215 0.0268545 -4.67277 0.65819 -2.44509e-09 4.49571e-09 3.89131e-10 -4.2317e-09 7.77447e-09 6.69562e-10 -2.44509e-09 4.49571e-09 3.89138e-10 -7.73091 5.47488 -0.417314 -2.44507e-09 4.49569e-09 3.89112e-10 -2.90554 0.965183 -0.102902 -2.44509e-09 4.49571e-09 3.89126e-10 -10.2786 0.731801 -0.0259123 -2.44508e-09 4.49571e-09 3.89109e-10 -2.22167 -0.733487 0.20892 -2.03217e-16 0.0 -3.88251e-19 -5.80607 -38.5742 -5.27311 -0.72807 54.6171 1.38491 -3.13277 -20.729 -6.09913 2.03217e-16 0.0 3.88251e-19 3.19636 -39.1786 1.67816 0.649426 50.9049 -0.961209 -2.48112 -15.4995 -8.14351
-0.0677889 76.0869 -7.65824 2.1306 5.9201 5.6693 8.44461 38.173 -4.7095 2.97011 1.49364 -0.511186 -17.8731 9.53092 -12.5259 35.966 -26.0789 -15.0523 -0.0 0.0 0.0 -0.0 0.0 0.0 5.89133e-14 7.20524e-15 4.93549e-14 -13.0211 12.8118 66.5727 -23.2339 -17.7304 47.2702 -0.0925068 8.6441 1.22424 5.77577e-10 -2.41801e-10 1.12653e-09 1.00664e-09 -4.0083e-10 1.94467e-09 5.77576e-10 -2.41808e-10 1.12652e-09 7.73091 5.47488 0.417314 5.77577e-10 -2.41805e-10 1.12652e-09 2.90554 0.965183 0.102902 5.77582e-10 -2.41804e-10 1.12653e-09 10.2786 0.731801 0.0259123 5.77569e-10 -2.41802e-10 1.12654e-09 2.22167 -0.733487 -0.20892 5.8843e-14 7.20618e-15 4.91052e-14 11.7713 7.12126 -69.9454 21.5857 -15.1472 -42.6853 0.0275149 -4.72131 0.665065 -2.18668e-09 3.76769e-09 2.5485e-10 -3.78363e-09 6.51314e-09 4.37171e-10 -2.18668e-09 3.76769e-09 2.54856e-10 -7.73091 5.47488 -0.417314 -2.18667e-09 3.76767e-09 2.54834e-10 -2.90554 0.965183 -0.102902 -2.18668e-09 3.76769e-09 2.54846e-10 -10.2786 0.731801 -0.0259123 -2.18667e-09 3.76769e-09 2.54831e-10 -2.22167 -0.733487 0.20892 -2.03217e-16 0.0 -3.88251e-19 -6.09236 -38.2859 -5.2609 -0.730592 54.6753 1.3883 -3.19164 -20.8163 -6.2119 2.03217e-16 0.0 3.88251e-19 2.9006 -38.8253 1.69075 0.644825 50.7778 -0.955974 -2.53217 -15.5133 -8.28453
0.0326759 76.111 -7.59413 2.3295 6.0188 5.4379 8.85859 37.9419 -4.89034 2.9166 1.33166 -0.520814 -17.7992 9.69141 -12.5265 35.754 -26.1067 -15.135 -0.0 0.0 0.0 -0.0 0.0 0.0 -4.04235e-15 5.96165e-15 1.28101e-13 -12.698 13.0774 66.3887 -23.2599 -17.7748 47.3478 -0.0947679 8.7485 1.23926 3.37366e-10 -3.10489e-11 5.19995e-10 5.87148e-10 -4.25403e-11 8.95176e-10 3.37366e-10 -3.10636e-11 5.19984e-10 7.73091 5.47488 0.417314 3.37366e-10 -3.1051e-11 5.19991e-10 2.90554 0.965183 0.102902 3.37371e-10 -3.10511e-11 5.1999e-10 10.2786 0.731801 0.0259123 3.37359e-10 -3.10502e-11 5.20001e-10 2.22167 -0.733487 -0.20892 -4.11743e-15 5.96515e-15 1.2785e-13 11.8406 7.47939 -69.1768 21.7596 -15.4001 -43.1467 0.0276517 -4.72515 0.665615 -1.16154e-09 1.68263e-09 6.40585e-12 -2.0089e-09 2.90432e-09 7.80898e-12 -1.16154e-09 1.68263e-09 6.41241e-12 -7.73091 5.47488 -0.417314 -1.16153e-09 1.68262e-09 6.39729e-12 -2.90554 0.965183 -0.102902 -1.16154e-09 1.68263e-09 6.40452e-12 -10.2786 0.731801 -0.0259123 -1.16153e-09 1.68263e-09 6.39591e-12 -2.22167 -0.733487 0.20892 -2.03217e-16 0.0 -3.88251e-19 -6.35684 -37.9649 -5.26008 -0.731848 54.7041 1.39013 -3.23813 -20.9128 -6.29492 2.03217e-16 0.0 3.88251e-19 2.62684 -38.4518 1.68799 0.639897 50.6395 -0.9502 -2.59266 -15.5477 -8.44327
0.151546 76.1577 -7.51436 2.5324 6.0493 5.1993 9.2674 37.6804 -5.04747 2.86599 1.18487 -0.526481 -17.7272 9.84535 -12.5267 35.515 -26.1063 -15.2272 -0.0 0.0 0.0 -0.0 0.0 0.0 -7.67049e-14 4.12216e-15 2.01824e-13 -12.3494 13.3416 66.1778 -23.2952 -17.8353 47.4527 -0.0968998 8.84465 1.2531 5.14587e-11 2.41548e-10 -2.10497e-10 8.78602e-11 4.21e-10 -3.6836e-10 5.146e-11 2.41527e-10 -2.10506e-10 7.73091 5.47488 0.417314 5.14593e-11 2.41548e-10 -2.10499e-10 2.90554 0.965183 0.102902 5.14636e-11 2.41547e-10 -2.10502e-10 10.2786 0.731801 0.0259123 5.14529e-11 2.41546e-10 -2.1049e-10 2.22167 -0.733487 -0.20892 -7.67857e-14 4.12731e-15 2.01572e-13 11.8873 7.8354 -68.371 21.9323 -15.6559 -43.6089 0.0269629 -4.66668 0.657341 8.06116e-11 -7.81925e-10 -2.66088e-10 1.41144e-10 -1.36047e-09 -4.62884e-10 8.06104e-11 -7.81923e-10 -2.66082e-10 -7.73091 5.47488 -0.417314 8.06167e-11 -7.81929e-10 -2.66089e-10 -2.90554 0.965183 -0.102902 8.06077e-11 -7.81924e-10 -2.66086e-10 -10.2786 0.731801 -0.0259123 8.06153e-11 -7.81922e-10 -2.66089e-10 -2.22167 -0.733487 0.20892 -2.03217e-16 0.0 -3.88251e-19 -6.59765 -37.6279 -5.24008 -0.732088 54.7092 1.39063 -3.27937 -21.0047 -6.36713 2.03217e-16 0.0 3.88251e-19 2.37272 -38.0602 1.69596 0.634591 50.4894 -0.944015 -2.65183 -15.5827 -8.59776
